<svg width="60" height="42" viewBox="0 0 60 42" fill="none" xmlns="http://www.w3.org/2000/svg">
<path d="M9.75 0C7.16414 0 4.68419 1.02723 2.85571 2.85571C1.02723 4.68419 0 7.16414 0 9.75V13.5H60V9.75C60 8.46961 59.7478 7.20176 59.2578 6.01884C58.7678 4.83591 58.0497 3.76108 57.1443 2.85571C56.2389 1.95034 55.1641 1.23216 53.9812 0.742175C52.7982 0.252192 51.5304 0 50.25 0H9.75ZM60 18H0V32.25C0 34.8359 1.02723 37.3158 2.85571 39.1443C4.68419 40.9728 7.16414 42 9.75 42H50.25C51.5304 42 52.7982 41.7478 53.9812 41.2578C55.1641 40.7678 56.2389 40.0497 57.1443 39.1443C58.0497 38.2389 58.7678 37.1641 59.2578 35.9812C59.7478 34.7982 60 33.5304 60 32.25V18ZM41.25 28.5H48.75C49.3467 28.5 49.919 28.7371 50.341 29.159C50.7629 29.581 51 30.1533 51 30.75C51 31.3467 50.7629 31.919 50.341 32.341C49.919 32.7629 49.3467 33 48.75 33H41.25C40.6533 33 40.081 32.7629 39.659 32.341C39.2371 31.919 39 31.3467 39 30.75C39 30.1533 39.2371 29.581 39.659 29.159C40.081 28.7371 40.6533 28.5 41.25 28.5Z" fill="#0066FF"/>
<path fill-rule="evenodd" clip-rule="evenodd" d="M9.75 1C7.42936 1 5.20376 1.92187 3.56282 3.56282C1.92187 5.20376 1 7.42936 1 9.75V12.5H59V9.75C59 8.60093 58.7737 7.46312 58.334 6.40152C57.8942 5.33992 57.2497 4.37533 56.4372 3.56282C55.6247 2.7503 54.6601 2.10578 53.5985 1.66605C52.5369 1.22633 51.3991 1 50.25 1H9.75ZM60 9.75C60 8.46961 59.7478 7.20176 59.2578 6.01884C58.7678 4.83591 58.0497 3.76108 57.1443 2.85571C56.2389 1.95034 55.1641 1.23216 53.9812 0.742175C52.7982 0.252192 51.5304 0 50.25 0H9.75C7.16414 0 4.68419 1.02723 2.85571 2.85571C1.02723 4.68419 0 7.16414 0 9.75V13.5H60V9.75ZM0 18H60V32.25C60 33.5304 59.7478 34.7982 59.2578 35.9812C58.7678 37.1641 58.0497 38.2389 57.1443 39.1443C56.2389 40.0497 55.1641 40.7678 53.9812 41.2578C52.7982 41.7478 51.5304 42 50.25 42H9.75C7.16414 42 4.68419 40.9728 2.85571 39.1443C1.02723 37.3158 0 34.8359 0 32.25V18ZM59 19H1V32.25C1 34.5706 1.92187 36.7962 3.56282 38.4372C5.20376 40.0781 7.42936 41 9.75 41H50.25C51.3991 41 52.5369 40.7737 53.5985 40.334C54.6601 39.8942 55.6247 39.2497 56.4372 38.4372C57.2497 37.6247 57.8942 36.6601 58.334 35.5985C58.7737 34.5369 59 33.3991 59 32.25V19ZM41.25 27.5H48.75C49.612 27.5 50.4386 27.8424 51.0481 28.4519C51.6576 29.0614 52 29.888 52 30.75C52 31.612 51.6576 32.4386 51.0481 33.0481C50.4386 33.6576 49.612 34 48.75 34H41.25C40.388 34 39.5614 33.6576 38.9519 33.0481C38.3424 32.4386 38 31.612 38 30.75C38 29.888 38.3424 29.0614 38.9519 28.4519C39.5614 27.8424 40.388 27.5 41.25 27.5ZM48.75 28.5H41.25C40.6533 28.5 40.081 28.7371 39.659 29.159C39.2371 29.581 39 30.1533 39 30.75C39 31.3467 39.2371 31.919 39.659 32.341C40.081 32.7629 40.6533 33 41.25 33H48.75C49.3467 33 49.919 32.7629 50.341 32.341C50.7629 31.919 51 31.3467 51 30.75C51 30.1533 50.7629 29.581 50.341 29.159C49.919 28.7371 49.3467 28.5 48.75 28.5Z" fill="#0066FF"/>
</svg>
