<svg width="59" height="55" viewBox="0 0 59 55" fill="none" xmlns="http://www.w3.org/2000/svg">
<path d="M36.9967 14.1968C36.7371 14.0463 36.4501 13.9487 36.1525 13.9097C35.8549 13.8706 35.5525 13.8908 35.2627 13.9692C34.9729 14.0476 34.7016 14.1825 34.4643 14.3663C34.227 14.55 34.0284 14.7789 33.8801 15.0397L20.7901 37.6881C20.6395 37.9477 20.5419 38.2345 20.5028 38.5319C20.4637 38.8294 20.4839 39.1317 20.5623 39.4213C20.6407 39.7109 20.7758 39.9821 20.9596 40.2193C21.1434 40.4565 21.3724 40.6549 21.6334 40.8032C21.9748 41.0114 22.3705 41.1135 22.7701 41.0964C23.1703 41.0947 23.5632 40.9891 23.9103 40.7899C24.2574 40.5907 24.5468 40.3049 24.7501 39.9603L37.8401 17.3119C37.9957 17.0537 38.0975 16.7666 38.1392 16.4681C38.181 16.1695 38.1619 15.8656 38.0831 15.5746C38.0043 15.2836 37.8675 15.0115 37.6808 14.7748C37.4941 14.538 37.2614 14.3414 36.9967 14.1968ZM26.9501 21.7463C27.0297 19.6587 26.2803 17.6242 24.8654 16.0865C23.4505 14.5487 21.4848 13.6324 19.3967 13.5372C17.3056 13.6324 15.3362 14.5475 13.9154 16.0842C12.4947 17.6208 11.737 19.6552 11.8067 21.7463C11.7272 23.8436 12.4804 25.8874 13.9021 27.432C15.3239 28.9766 17.299 29.8968 19.3967 29.9921C21.4914 29.8969 23.4629 28.9755 24.8788 27.4297C26.2947 25.884 27.0396 23.8401 26.9501 21.7463ZM19.3967 25.4111C18.5178 25.3094 17.7128 24.8703 17.1518 24.1865C16.5908 23.5027 16.3176 22.6277 16.3901 21.7463C16.308 20.8629 16.5777 19.9828 17.1405 19.2968C17.7033 18.6108 18.514 18.1741 19.3967 18.0815C20.2768 18.1739 21.0841 18.6119 21.6411 19.2991C22.1981 19.9864 22.4591 20.8667 22.3667 21.7463C22.4493 22.624 22.1847 23.4991 21.6295 24.1841C21.0744 24.8691 20.2729 25.3095 19.3967 25.4111ZM39.2701 25.008C37.182 25.1032 35.2163 26.0195 33.8014 27.5573C32.3865 29.095 31.6372 31.1294 31.7167 33.2171C31.6272 35.3109 32.3721 37.3548 33.788 38.9005C35.204 40.4463 37.1754 41.3677 39.2701 41.4628C41.3679 41.3676 43.3429 40.4474 44.7647 38.9028C46.1865 37.3582 46.9397 35.3144 46.8601 33.2171C46.9298 31.1259 46.1722 29.0916 44.7514 27.555C43.3307 26.0183 41.3613 25.1032 39.2701 25.008ZM39.2701 36.8819C38.394 36.7803 37.5925 36.3399 37.0373 35.6549C36.4822 34.9698 36.2175 34.0948 36.3001 33.2171C36.2175 32.3394 36.4822 31.4643 37.0373 30.7793C37.5925 30.0943 38.394 29.6538 39.2701 29.5523C40.1529 29.6449 40.9635 30.0816 41.5263 30.7676C42.0892 31.4536 42.3588 32.3337 42.2767 33.2171C42.3492 34.0984 42.0761 34.9735 41.515 35.6573C40.954 36.3411 40.149 36.7802 39.2701 36.8819Z" fill="#0066FF"/>
<path fill-rule="evenodd" clip-rule="evenodd" d="M36.5063 15.0684L36.4954 15.0621C36.3499 14.9777 36.1891 14.9231 36.0223 14.9012C35.8556 14.8793 35.6861 14.8906 35.5238 14.9345C35.3614 14.9784 35.2094 15.054 35.0765 15.157C34.9436 15.2599 34.8324 15.388 34.7494 15.5341L34.7459 15.5401L21.6551 38.1899C21.5708 38.3352 21.5161 38.4957 21.4943 38.6622C21.4724 38.8287 21.4837 38.9979 21.5276 39.16C21.5715 39.3221 21.6471 39.4739 21.75 39.6067C21.8529 39.7395 21.9812 39.8506 22.1274 39.9337L22.1409 39.9414L22.1541 39.9494C22.3262 40.0544 22.5258 40.1059 22.7273 40.0973L22.7466 40.0965L22.7658 40.0964C22.9929 40.0954 23.2158 40.0355 23.4126 39.9225C23.6084 39.8102 23.7717 39.6493 23.8868 39.4555L36.9789 16.8036L36.9836 16.7958C37.0696 16.6531 37.1258 16.4945 37.1489 16.3295C37.1719 16.1646 37.1614 15.9967 37.1179 15.8359C37.0743 15.6751 36.9987 15.5248 36.8955 15.3939C36.7924 15.2631 36.6637 15.1544 36.5174 15.0744L36.5063 15.0684ZM24.7501 39.9603C24.5468 40.3049 24.2574 40.5907 23.9103 40.7899C23.5632 40.9891 23.1703 41.0947 22.7701 41.0964C22.3705 41.1135 21.9748 41.0114 21.6334 40.8032C21.3724 40.6549 21.1434 40.4565 20.9596 40.2193C20.7758 39.9821 20.6407 39.7109 20.5623 39.4213C20.4839 39.1317 20.4637 38.8294 20.5028 38.5319C20.5419 38.2345 20.6395 37.9477 20.7901 37.6881L33.8801 15.0397C34.0284 14.7789 34.227 14.55 34.4643 14.3663C34.7016 14.1825 34.9729 14.0476 35.2627 13.9692C35.5525 13.8908 35.8549 13.8706 36.1525 13.9097C36.4501 13.9487 36.7371 14.0463 36.9967 14.1968C37.2614 14.3414 37.4941 14.538 37.6808 14.7748C37.8675 15.0115 38.0043 15.2836 38.0831 15.5746C38.1619 15.8656 38.181 16.1695 38.1392 16.4681C38.0975 16.7666 37.9957 17.0537 37.8401 17.3119L24.7501 39.9603ZM31.7167 33.2171C31.6372 31.1294 32.3865 29.095 33.8014 27.5573C35.2163 26.0195 37.182 25.1032 39.2701 25.008C41.3613 25.1032 43.3307 26.0183 44.7514 27.555C46.1722 29.0916 46.9298 31.1259 46.8601 33.2171C46.9397 35.3144 46.1865 37.3582 44.7647 38.9028C43.3429 40.4474 41.3679 41.3676 39.2701 41.4628C37.1754 41.3677 35.204 40.4463 33.788 38.9005C32.3721 37.3548 31.6272 35.3109 31.7167 33.2171ZM39.2701 40.4617C41.0875 40.3673 42.7961 39.5648 44.0289 38.2255C45.2719 36.8751 45.9304 35.0884 45.8608 33.255L45.8594 33.2194L45.8606 33.1838C45.9216 31.3557 45.2593 29.5773 44.0172 28.2338C42.7853 26.9015 41.0817 26.1035 39.2701 26.0091C37.4625 26.1035 35.7632 26.902 34.5373 28.2344C33.3011 29.5779 32.6465 31.3552 32.716 33.179L32.7176 33.2194L32.7158 33.2598C32.6376 35.089 33.2883 36.8746 34.5254 38.2251C35.7523 39.5644 37.4567 40.3674 39.2701 40.4617ZM11.8067 21.7463C11.737 19.6552 12.4947 17.6208 13.9154 16.0842C15.3362 14.5475 17.3056 13.6324 19.3967 13.5372C21.4848 13.6324 23.4505 14.5487 24.8654 16.0865C26.2803 17.6242 27.0297 19.6587 26.9501 21.7463C27.0396 23.8401 26.2947 25.884 24.8788 27.4297C23.4629 28.9755 21.4914 29.8969 19.3967 29.9921C17.299 29.8968 15.3239 28.9766 13.9021 27.432C12.4804 25.8874 11.7272 23.8436 11.8067 21.7463ZM19.3967 28.9909C21.2102 28.8966 22.9145 28.0936 24.1414 26.7543C25.3785 25.4038 26.0292 23.6182 25.951 21.789L25.9493 21.7486L25.9508 21.7082C26.0203 19.8845 25.3657 18.1071 24.1295 16.7636C22.9036 15.4312 21.2043 14.6327 19.3967 14.5384C17.5852 14.6328 15.8815 15.4308 14.6497 16.7631C13.4076 18.1065 12.7453 19.885 12.8062 21.713L12.8074 21.7486L12.806 21.7842C12.7365 23.6177 13.3949 25.4044 14.6379 26.7548C15.8707 28.0941 17.5794 28.8965 19.3967 28.9909ZM19.3969 26.4178L19.2819 26.4045C18.1454 26.273 17.1043 25.7052 16.3787 24.8208C15.6715 23.9589 15.318 22.862 15.3871 21.7515C15.306 20.6355 15.6562 19.5294 16.3674 18.6625C17.0971 17.7731 18.1481 17.207 19.2924 17.087L19.3968 17.076L19.5011 17.087C20.6448 17.207 21.694 17.7762 22.418 18.6695C23.1211 19.5371 23.4614 20.6413 23.3705 21.7517C23.4492 22.8564 23.1053 23.9513 22.4064 24.8137C21.6866 25.7019 20.6476 26.2728 19.5119 26.4044L19.3969 26.4178ZM22.3667 21.7463C22.4591 20.8667 22.1981 19.9864 21.6411 19.2991C21.0841 18.6119 20.2768 18.1739 19.3967 18.0815C18.514 18.1741 17.7033 18.6108 17.1405 19.2968C16.5777 19.9828 16.308 20.8629 16.3901 21.7463C16.3176 22.6277 16.5908 23.5027 17.1518 24.1865C17.7128 24.8703 18.5178 25.3094 19.3967 25.4111C20.2729 25.3095 21.0744 24.8691 21.6295 24.1841C22.1847 23.4991 22.4493 22.624 22.3667 21.7463ZM39.27 37.8885L39.155 37.8752C38.0193 37.7436 36.9802 37.1726 36.2604 36.2845C35.5604 35.4207 35.2165 34.3236 35.2967 33.2171C35.2165 32.1105 35.5604 31.0135 36.2604 30.1497C36.9802 29.2615 38.0193 28.6905 39.155 28.5589L39.2646 28.5462L39.3744 28.5577C40.5187 28.6778 41.5697 29.2439 42.2994 30.1333C43.0107 31.0002 43.3608 32.1062 43.2797 33.2223C43.3489 34.3328 42.9953 35.4297 42.2882 36.2916C41.5625 37.176 40.5215 37.7438 39.3849 37.8752L39.27 37.8885ZM42.2767 33.2171C42.3588 32.3337 42.0892 31.4536 41.5263 30.7676C40.9635 30.0816 40.1529 29.6449 39.2701 29.5523C38.394 29.6538 37.5925 30.0943 37.0373 30.7793C36.4822 31.4643 36.2175 32.3394 36.3001 33.2171C36.2175 34.0948 36.4822 34.9698 37.0373 35.6549C37.5925 36.3399 38.394 36.7803 39.2701 36.8819C40.149 36.7802 40.954 36.3411 41.515 35.6573C42.0761 34.9735 42.3492 34.0984 42.2767 33.2171Z" fill="#0066FF"/>
<path d="M29.3333 0.0141043C21.7984 -0.223038 14.4772 2.53825 8.97742 7.69164C3.47765 12.845 0.248851 19.9693 0 27.5C0.248851 35.0307 3.47765 42.155 8.97742 47.3084C14.4772 52.4618 21.7984 55.223 29.3333 54.9859C36.8683 55.223 44.1895 52.4618 49.6892 47.3084C55.189 42.155 58.4178 35.0307 58.6667 27.5C58.4178 19.9693 55.189 12.845 49.6892 7.69164C44.1895 2.53825 36.8683 -0.223038 29.3333 0.0141043ZM29.3333 50.4049C23.0163 50.633 16.866 48.3513 12.2278 44.0589C7.58953 39.7664 4.84098 33.8127 4.58333 27.5C4.84098 21.1873 7.58953 15.2336 12.2278 10.9411C16.866 6.64869 23.0163 4.36697 29.3333 4.59509C35.6504 4.36697 41.8007 6.64869 46.4389 10.9411C51.0771 15.2336 53.8257 21.1873 54.0833 27.5C53.8257 33.8127 51.0771 39.7664 46.4389 44.0589C41.8007 48.3513 35.6504 50.633 29.3333 50.4049Z" fill="#0066FF"/>
<path fill-rule="evenodd" clip-rule="evenodd" d="M29.3333 1.0146L29.3019 1.01361C22.0316 0.784796 14.9676 3.4491 9.66118 8.42135C4.36278 13.386 1.249 20.2464 1.00057 27.5C1.249 34.7536 4.36278 41.614 9.66118 46.5787C14.9676 51.5509 22.0316 54.2152 29.3019 53.9864L29.3333 53.9854L29.3648 53.9864C36.6351 54.2152 43.699 51.5509 49.0055 46.5787C54.3039 41.614 57.4177 34.7536 57.6661 27.5C57.4177 20.2464 54.3039 13.386 49.0055 8.42135C43.699 3.4491 36.6351 0.784796 29.3648 1.01361L29.3333 1.0146ZM58.6667 27.5C58.4178 35.0307 55.189 42.155 49.6892 47.3084C44.1895 52.4618 36.8683 55.223 29.3333 54.9859C21.7984 55.223 14.4772 52.4618 8.97742 47.3084C3.47765 42.155 0.248851 35.0307 0 27.5C0.248851 19.9693 3.47765 12.845 8.97742 7.69164C14.4772 2.53825 21.7984 -0.223038 29.3333 0.0141043C36.8683 -0.223038 44.1895 2.53825 49.6892 7.69164C55.189 12.845 58.4178 19.9693 58.6667 27.5ZM3.5825 27.5L3.58417 27.4592C3.8526 20.8822 6.71625 14.6792 11.5485 10.2072C16.372 5.74336 22.7649 3.36678 29.3333 3.59446C35.9018 3.36678 42.2947 5.74336 47.1181 10.2072C51.9504 14.6792 54.8141 20.8822 55.0825 27.4592L55.0842 27.5L55.0825 27.5408C54.8141 34.1178 51.9504 40.3208 47.1181 44.7928C42.2947 49.2567 35.9018 51.6332 29.3333 51.4055C22.7649 51.6332 16.372 49.2567 11.5485 44.7928C6.71625 40.3208 3.8526 34.1178 3.58417 27.5408L3.5825 27.5ZM29.3333 50.4049C35.6504 50.633 41.8007 48.3513 46.4389 44.0589C51.0771 39.7664 53.8257 33.8127 54.0833 27.5C53.8257 21.1873 51.0771 15.2336 46.4389 10.9411C41.8007 6.64869 35.6504 4.36697 29.3333 4.59509C23.0163 4.36697 16.866 6.64869 12.2278 10.9411C7.58953 15.2336 4.84098 21.1873 4.58333 27.5C4.84098 33.8127 7.58953 39.7664 12.2278 44.0589C16.866 48.3513 23.0163 50.633 29.3333 50.4049Z" fill="#0066FF"/>
</svg>
