<svg width="40" height="52" viewBox="0 0 40 52" fill="none" xmlns="http://www.w3.org/2000/svg">
<path fill-rule="evenodd" clip-rule="evenodd" d="M39.5 19.5L34.625 14.625L23.445 3.445L20 0L16.555 3.445L5.375 14.625L0.5 19.5H10.25V42.25H29.75V19.5H39.5ZM20 6.89325L27.7317 14.625H24.875V37.375H15.125V14.625H12.2682L20 6.89325ZM12.6875 47.125C12.041 47.125 11.421 47.3818 10.9639 47.8389C10.5068 48.296 10.25 48.916 10.25 49.5625C10.25 50.209 10.5068 50.829 10.9639 51.2861C11.421 51.7432 12.041 52 12.6875 52H27.3125C27.959 52 28.579 51.7432 29.0361 51.2861C29.4932 50.829 29.75 50.209 29.75 49.5625C29.75 48.916 29.4932 48.296 29.0361 47.8389C28.579 47.3818 27.959 47.125 27.3125 47.125H12.6875Z" fill="#0066FF"/>
<path fill-rule="evenodd" clip-rule="evenodd" d="M11.25 18.5V41.25H28.75V18.5H37.0858L20 1.41421L2.91421 18.5H11.25ZM0.5 19.5H10.25V42.25H29.75V19.5H39.5L20 0L0.5 19.5ZM20 5.47904L30.146 15.625H25.875V38.375H14.125V15.625H9.85404L20 5.47904ZM15.125 14.625V37.375H24.875V14.625H27.7317L20 6.89325L12.2682 14.625H15.125ZM12.6875 48.125C12.3063 48.125 11.9406 48.2765 11.671 48.546C11.4015 48.8156 11.25 49.1813 11.25 49.5625C11.25 49.9437 11.4015 50.3094 11.671 50.579C11.9406 50.8485 12.3063 51 12.6875 51H27.3125C27.6937 51 28.0594 50.8485 28.329 50.579C28.5985 50.3094 28.75 49.9437 28.75 49.5625C28.75 49.1813 28.5985 48.8156 28.329 48.546C28.0594 48.2765 27.6937 48.125 27.3125 48.125H12.6875ZM10.9639 47.8389C11.421 47.3818 12.041 47.125 12.6875 47.125H27.3125C27.959 47.125 28.579 47.3818 29.0361 47.8389C29.4932 48.296 29.75 48.916 29.75 49.5625C29.75 50.209 29.4932 50.829 29.0361 51.2861C28.579 51.7432 27.959 52 27.3125 52H12.6875C12.041 52 11.421 51.7432 10.9639 51.2861C10.5068 50.829 10.25 50.209 10.25 49.5625C10.25 48.916 10.5068 48.296 10.9639 47.8389Z" fill="white"/>
</svg>
